<svg width="68" height="29" viewBox="0 0 68 29" fill="none" xmlns="http://www.w3.org/2000/svg">
<path d="M18.2 12.68V15.32L0.8 22.28V19.8L15.52 14L0.8 8.2V5.68L18.2 12.68ZM41.3166 -1.90735e-06V28H38.4366V2.56H31.8366V-1.90735e-06H41.3166ZM55.3697 11.48C59.423 11.48 62.3697 12.2133 64.2097 13.68C66.0764 15.12 67.0097 17.1467 67.0097 19.76C67.0097 21.3867 66.623 22.84 65.8497 24.12C65.103 25.4 63.9697 26.4133 62.4497 27.16C60.9297 27.88 59.063 28.24 56.8497 28.24C54.8497 28.24 52.943 27.92 51.1297 27.28C49.343 26.6133 47.903 25.7333 46.8097 24.64L48.2097 22.36C49.143 23.32 50.3697 24.1067 51.8897 24.72C53.4097 25.3067 55.0497 25.6 56.8097 25.6C59.1297 25.6 60.9164 25.08 62.1697 24.04C63.4497 23 64.0897 21.6133 64.0897 19.88C64.0897 17.96 63.3697 16.5067 61.9297 15.52C60.5164 14.5333 58.1164 14.04 54.7297 14.04H48.7697L50.2097 -1.90735e-06H65.5297V2.56H52.7297L51.7697 11.48H55.3697Z" fill="#2B3541"/>
</svg>
